# xmcd
#
# Track frame offsets:
#	150
#	54691
#	83393
#	110437
#	126608
#	146380
#	152714
#	161267
#	164932
#	168617
#	178955
#	222205
#	227175
#
# Disc length: 3720 seconds
#
# Revision: 1
# Processed by: cddbd v1.5.2PL0 Copyright (c) Steve Scherf et al.
# Submitted via: audiograbber 1.83.01
#
DISCID=b90e860d
DTITLE=Grateful Dead - 76-07-12 Orpheum Theatre, San Francisco CA
DYEAR=1900
DGENRE=
TTITLE0=Dancing In The Streets
TTITLE1=They Love Each Other
TTITLE2=The Music Never Stopped
TTITLE3=The Music Never Stopped 2
TTITLE4=Stella Blue
TTITLE5=Stella Blue 2
TTITLE6=Stella Blue 3
TTITLE7=Stella Blue 4
TTITLE8=Stella Blue 5
TTITLE9=Stella Blue 6
TTITLE10=Stella Blue 7
TTITLE11=Let It Grow
TTITLE12=Eyes Of The World
EXTD=
EXTT0=
EXTT1=
EXTT2=
EXTT3=
EXTT4=
EXTT5=
EXTT6=
EXTT7=
EXTT8=
EXTT9=
EXTT10=
EXTT11=
EXTT12=
PLAYORDER=
